<svg xmlns="http://www.w3.org/2000/svg" viewBox="0 0 750 500"><g id="freepik--background-complete--inject-4"><path d="M705.45,113.74c.61-4.38-5.58-8-10.22-8.36-2.22-.18-4.52.16-6.62-.57-4.55-1.58-6.36-7.46-10.8-9.33-3.32-1.4-7.14-.15-10.35,1.46s-6.4,3.66-10,3.89c-3.12.2-6.52-1-9.25.57-2,1.14-3.11,3.48-5,4.87s-4.23,1.64-6.51,1.77-4.64.14-6.72,1.09-3.79,3.15-3.36,5.39Z" style="fill:#f5f5f5"></path><path d="M135.12,62.88c.6-4.38-5.58-8-10.22-8.36-2.22-.18-4.52.16-6.62-.57-4.55-1.59-6.36-7.46-10.8-9.33-3.32-1.4-7.14-.16-10.35,1.46s-6.4,3.66-10,3.89c-3.13.2-6.52-1-9.26.56-2,1.14-3.1,3.49-5,4.88s-4.23,1.64-6.51,1.76-4.64.15-6.72,1.1-3.79,3.14-3.36,5.39Z" style="fill:#f5f5f5"></path><path d="M479.88,65.34c.77-5.57-7.1-10.16-13-10.63-2.81-.23-5.74.2-8.41-.73-5.79-2-8.1-9.49-13.74-11.87-4.22-1.78-9.08-.2-13.17,1.86s-8.14,4.65-12.71,4.94c-4,.26-8.29-1.21-11.77.73-2.59,1.44-3.95,4.43-6.34,6.19s-5.39,2.09-8.29,2.25-5.9.19-8.54,1.4-4.82,4-4.28,6.85Z" style="fill:#ebebeb"></path><path d="M275.73,106.06c.63-4.57-5.81-8.32-10.65-8.71-2.31-.19-4.71.16-6.9-.6C253.44,95.1,251.55,89,246.92,87c-3.45-1.45-7.43-.16-10.79,1.53s-6.66,3.81-10.4,4c-3.26.21-6.8-1-9.65.59-2.12,1.19-3.23,3.63-5.19,5.08s-4.41,1.71-6.79,1.84-4.84.15-7,1.14-3.95,3.28-3.5,5.62Z" style="fill:#ebebeb"></path><rect x="531.3" y="104.7" width="81.64" height="345.24" transform="translate(1144.24 554.64) rotate(180)" style="fill:#ebebeb"></rect><rect x="572.91" y="128.9" width="24.81" height="47.82" transform="translate(1170.63 305.61) rotate(180)" style="fill:#fff"></rect><path d="M584.62,176.71c.18,0,.33-10.7.33-23.9s-.15-23.91-.33-23.91-.34,10.7-.34,23.91S584.43,176.71,584.62,176.71Z" style="fill:#e0e0e0"></path><path d="M572.91,145.51c0,.18,5.55.33,12.4.33s12.41-.15,12.41-.33-5.55-.33-12.41-.33S572.91,145.33,572.91,145.51Z" style="fill:#e0e0e0"></path><path d="M572.78,162.61c0,.18,5.6.33,12.51.33s12.51-.15,12.51-.33-5.6-.33-12.51-.33S572.78,162.43,572.78,162.61Z" style="fill:#e0e0e0"></path><rect x="572.91" y="191.35" width="24.81" height="47.82" transform="translate(1170.63 430.52) rotate(180)" style="fill:#fff"></rect><path d="M584.62,239.17c.18,0,.33-10.7.33-23.91s-.15-23.91-.33-23.91-.34,10.71-.34,23.91S584.43,239.17,584.62,239.17Z" style="fill:#e0e0e0"></path><path d="M572.91,208c0,.18,5.55.33,12.4.33s12.41-.15,12.41-.33-5.55-.34-12.41-.34S572.91,207.78,572.91,208Z" style="fill:#e0e0e0"></path><path d="M572.78,225.07c0,.18,5.6.33,12.51.33s12.51-.15,12.51-.33-5.6-.33-12.51-.33S572.78,224.88,572.78,225.07Z" style="fill:#e0e0e0"></path><rect x="572.91" y="253.81" width="24.81" height="47.82" transform="translate(1170.63 555.44) rotate(180)" style="fill:#fff"></rect><path d="M584.62,301.63c.18,0,.33-10.71.33-23.91s-.15-23.91-.33-23.91-.34,10.7-.34,23.91S584.43,301.63,584.62,301.63Z" style="fill:#e0e0e0"></path><path d="M572.91,270.42c0,.19,5.55.34,12.4.34s12.41-.15,12.41-.34-5.55-.33-12.41-.33S572.91,270.24,572.91,270.42Z" style="fill:#e0e0e0"></path><path d="M572.78,287.53c0,.18,5.6.33,12.51.33s12.51-.15,12.51-.33-5.6-.34-12.51-.34S572.78,287.34,572.78,287.53Z" style="fill:#e0e0e0"></path><rect x="572.91" y="316.27" width="24.81" height="47.82" transform="translate(1170.63 680.36) rotate(180)" style="fill:#fff"></rect><path d="M584.62,364.09c.18,0,.33-10.71.33-23.91s-.15-23.91-.33-23.91-.34,10.7-.34,23.91S584.43,364.09,584.62,364.09Z" style="fill:#e0e0e0"></path><path d="M572.91,332.88c0,.19,5.55.33,12.4.33s12.41-.14,12.41-.33-5.55-.33-12.41-.33S572.91,332.7,572.91,332.88Z" style="fill:#e0e0e0"></path><path d="M572.78,350c0,.19,5.6.34,12.51.34s12.51-.15,12.51-.34-5.6-.33-12.51-.33S572.78,349.8,572.78,350Z" style="fill:#e0e0e0"></path><rect x="496.58" y="104.7" width="59.48" height="345.24" transform="translate(1052.64 554.64) rotate(180)" style="fill:#e0e0e0"></rect><rect x="512.78" y="128.9" width="24.81" height="47.82" transform="translate(1050.37 305.61) rotate(180)" style="fill:#fff"></rect><path d="M524.49,176.71c.18,0,.33-10.7.33-23.9s-.15-23.91-.33-23.91-.34,10.7-.34,23.91S524.3,176.71,524.49,176.71Z" style="fill:#e0e0e0"></path><path d="M512.78,145.51c0,.18,5.55.33,12.4.33s12.41-.15,12.41-.33-5.55-.33-12.41-.33S512.78,145.33,512.78,145.51Z" style="fill:#e0e0e0"></path><path d="M512.65,162.61c0,.18,5.6.33,12.51.33s12.5-.15,12.5-.33-5.59-.33-12.5-.33S512.65,162.43,512.65,162.61Z" style="fill:#e0e0e0"></path><rect x="512.78" y="191.87" width="24.81" height="47.82" transform="translate(1050.37 431.55) rotate(180)" style="fill:#fff"></rect><path d="M524.49,239.68c.18,0,.33-10.7.33-23.9s-.15-23.91-.33-23.91-.34,10.7-.34,23.91S524.3,239.68,524.49,239.68Z" style="fill:#e0e0e0"></path><path d="M512.78,208.48c0,.18,5.55.33,12.4.33s12.41-.15,12.41-.33-5.55-.33-12.41-.33S512.78,208.3,512.78,208.48Z" style="fill:#e0e0e0"></path><path d="M512.65,225.58c0,.18,5.6.33,12.51.33s12.5-.15,12.5-.33-5.59-.33-12.5-.33S512.65,225.4,512.65,225.58Z" style="fill:#e0e0e0"></path><rect x="512.78" y="254.84" width="24.81" height="47.82" transform="translate(1050.37 557.49) rotate(180)" style="fill:#fff"></rect><path d="M524.49,302.65c.18,0,.33-10.7.33-23.9s-.15-23.91-.33-23.91-.34,10.7-.34,23.91S524.3,302.65,524.49,302.65Z" style="fill:#e0e0e0"></path><path d="M512.78,271.45c0,.18,5.55.33,12.4.33s12.41-.15,12.41-.33-5.55-.33-12.41-.33S512.78,271.27,512.78,271.45Z" style="fill:#e0e0e0"></path><path d="M512.65,288.55c0,.18,5.6.33,12.51.33s12.5-.15,12.5-.33-5.59-.33-12.5-.33S512.65,288.37,512.65,288.55Z" style="fill:#e0e0e0"></path><rect x="512.78" y="317.81" width="24.81" height="47.82" transform="translate(1050.37 683.43) rotate(180)" style="fill:#fff"></rect><path d="M524.49,365.62c.18,0,.33-10.7.33-23.9s-.15-23.91-.33-23.91-.34,10.7-.34,23.91S524.3,365.62,524.49,365.62Z" style="fill:#e0e0e0"></path><path d="M512.78,334.42c0,.18,5.55.33,12.4.33s12.41-.15,12.41-.33-5.55-.33-12.41-.33S512.78,334.24,512.78,334.42Z" style="fill:#e0e0e0"></path><path d="M512.65,351.52c0,.18,5.6.33,12.51.33s12.5-.15,12.5-.33-5.59-.33-12.5-.33S512.65,351.34,512.65,351.52Z" style="fill:#e0e0e0"></path><rect x="572.91" y="378.73" width="24.81" height="47.82" transform="translate(1170.63 805.27) rotate(180)" style="fill:#fff"></rect><path d="M584.62,426.54c.18,0,.33-10.7.33-23.9s-.15-23.91-.33-23.91-.34,10.7-.34,23.91S584.43,426.54,584.62,426.54Z" style="fill:#e0e0e0"></path><path d="M572.91,395.34c0,.18,5.55.33,12.4.33s12.41-.15,12.41-.33-5.55-.33-12.41-.33S572.91,395.16,572.91,395.34Z" style="fill:#e0e0e0"></path><path d="M572.78,412.44c0,.18,5.6.33,12.51.33s12.51-.15,12.51-.33-5.6-.33-12.51-.33S572.78,412.26,572.78,412.44Z" style="fill:#e0e0e0"></path><rect x="512.78" y="380.78" width="24.81" height="47.82" transform="translate(1050.37 809.37) rotate(180)" style="fill:#fff"></rect><path d="M524.49,428.59c.18,0,.33-10.7.33-23.9s-.15-23.91-.33-23.91-.34,10.7-.34,23.91S524.3,428.59,524.49,428.59Z" style="fill:#e0e0e0"></path><path d="M512.78,397.39c0,.18,5.55.33,12.4.33s12.41-.15,12.41-.33-5.55-.33-12.41-.33S512.78,397.21,512.78,397.39Z" style="fill:#e0e0e0"></path><path d="M512.65,414.49c0,.18,5.6.33,12.51.33s12.5-.15,12.5-.33-5.59-.33-12.5-.33S512.65,414.31,512.65,414.49Z" style="fill:#e0e0e0"></path><rect x="642.34" y="249.52" width="47.39" height="200.42" transform="translate(1332.07 699.46) rotate(180)" style="fill:#ebebeb"></rect><rect x="666.49" y="263.57" width="14.4" height="27.76" transform="translate(1347.39 554.9) rotate(180)" style="fill:#fff"></rect><path d="M673.29,291.33c.11,0,.19-6.22.19-13.88s-.08-13.88-.19-13.88-.19,6.21-.19,13.88S673.18,291.33,673.29,291.33Z" style="fill:#e0e0e0"></path><path d="M666.49,273.21a136.71,136.71,0,0,0,14.41,0,136.71,136.71,0,0,0-14.41,0Z" style="fill:#e0e0e0"></path><path d="M666.42,283.14a138.8,138.8,0,0,0,14.52,0,138.8,138.8,0,0,0-14.52,0Z" style="fill:#e0e0e0"></path><rect x="666.49" y="299.83" width="14.4" height="27.76" transform="translate(1347.39 627.41) rotate(180)" style="fill:#fff"></rect><path d="M673.29,327.58c.11,0,.19-6.21.19-13.87s-.08-13.88-.19-13.88-.19,6.21-.19,13.88S673.18,327.58,673.29,327.58Z" style="fill:#e0e0e0"></path><path d="M666.49,309.47a136.71,136.71,0,0,0,14.41,0,136.71,136.71,0,0,0-14.41,0Z" style="fill:#e0e0e0"></path><path d="M666.42,319.4a138.8,138.8,0,0,0,14.52,0,131.87,131.87,0,0,0-14.52,0Z" style="fill:#e0e0e0"></path><rect x="666.49" y="336.08" width="14.4" height="27.76" transform="translate(1347.39 699.93) rotate(180)" style="fill:#fff"></rect><path d="M673.29,363.84c.11,0,.19-6.21.19-13.88s-.08-13.88-.19-13.88-.19,6.22-.19,13.88S673.18,363.84,673.29,363.84Z" style="fill:#e0e0e0"></path><path d="M666.49,345.73a136.71,136.71,0,0,0,14.41,0,136.71,136.71,0,0,0-14.41,0Z" style="fill:#e0e0e0"></path><path d="M666.42,355.66a138.8,138.8,0,0,0,14.52,0,131.87,131.87,0,0,0-14.52,0Z" style="fill:#e0e0e0"></path><rect x="666.49" y="372.34" width="14.4" height="27.76" transform="translate(1347.39 772.44) rotate(180)" style="fill:#fff"></rect><path d="M673.29,400.1c.11,0,.19-6.21.19-13.88s-.08-13.88-.19-13.88-.19,6.22-.19,13.88S673.18,400.1,673.29,400.1Z" style="fill:#e0e0e0"></path><path d="M666.49,382a136.71,136.71,0,0,0,14.41,0,129.88,129.88,0,0,0-14.41,0Z" style="fill:#e0e0e0"></path><path d="M666.42,391.91a131.87,131.87,0,0,0,14.52,0,138.8,138.8,0,0,0-14.52,0Z" style="fill:#e0e0e0"></path><rect x="622.18" y="249.52" width="34.53" height="200.42" transform="translate(1278.9 699.46) rotate(180)" style="fill:#e0e0e0"></rect><rect x="631.59" y="263.57" width="14.4" height="27.76" transform="translate(1277.58 554.9) rotate(180)" style="fill:#fff"></rect><path d="M638.38,291.33c.11,0,.2-6.22.2-13.88s-.09-13.88-.2-13.88-.19,6.21-.19,13.88S638.28,291.33,638.38,291.33Z" style="fill:#e0e0e0"></path><path d="M631.59,273.21a136.52,136.52,0,0,0,14.4,0,136.52,136.52,0,0,0-14.4,0Z" style="fill:#e0e0e0"></path><path d="M631.51,283.14a138.8,138.8,0,0,0,14.52,0,138.8,138.8,0,0,0-14.52,0Z" style="fill:#e0e0e0"></path><rect x="631.59" y="300.12" width="14.4" height="27.76" transform="translate(1277.58 628.01) rotate(180)" style="fill:#fff"></rect><path d="M638.38,327.88c.11,0,.2-6.21.2-13.88s-.09-13.88-.2-13.88-.19,6.22-.19,13.88S638.28,327.88,638.38,327.88Z" style="fill:#e0e0e0"></path><path d="M631.59,309.77a136.52,136.52,0,0,0,14.4,0,136.52,136.52,0,0,0-14.4,0Z" style="fill:#e0e0e0"></path><path d="M631.51,319.69a131.87,131.87,0,0,0,14.52,0,138.8,138.8,0,0,0-14.52,0Z" style="fill:#e0e0e0"></path><rect x="631.59" y="336.68" width="14.4" height="27.76" transform="translate(1277.58 701.12) rotate(180)" style="fill:#fff"></rect><path d="M638.38,364.44c.11,0,.2-6.22.2-13.88s-.09-13.88-.2-13.88-.19,6.21-.19,13.88S638.28,364.44,638.38,364.44Z" style="fill:#e0e0e0"></path><path d="M631.59,346.32a129.7,129.7,0,0,0,14.4,0,136.52,136.52,0,0,0-14.4,0Z" style="fill:#e0e0e0"></path><path d="M631.51,356.25a138.8,138.8,0,0,0,14.52,0,138.8,138.8,0,0,0-14.52,0Z" style="fill:#e0e0e0"></path><rect x="631.59" y="373.23" width="14.4" height="27.76" transform="translate(1277.58 774.23) rotate(180)" style="fill:#fff"></rect><path d="M638.38,401c.11,0,.2-6.21.2-13.88s-.09-13.88-.2-13.88-.19,6.22-.19,13.88S638.28,401,638.38,401Z" style="fill:#e0e0e0"></path><path d="M631.59,382.88a136.52,136.52,0,0,0,14.4,0,136.52,136.52,0,0,0-14.4,0Z" style="fill:#e0e0e0"></path><path d="M631.51,392.81a138.8,138.8,0,0,0,14.52,0,131.87,131.87,0,0,0-14.52,0Z" style="fill:#e0e0e0"></path><rect x="666.49" y="408.6" width="14.4" height="27.76" transform="translate(1347.39 844.96) rotate(180)" style="fill:#fff"></rect><path d="M673.29,436.36c.11,0,.19-6.22.19-13.88s-.08-13.88-.19-13.88-.19,6.21-.19,13.88S673.18,436.36,673.29,436.36Z" style="fill:#e0e0e0"></path><path d="M666.49,418.24a129.88,129.88,0,0,0,14.41,0,136.71,136.71,0,0,0-14.41,0Z" style="fill:#e0e0e0"></path><path d="M666.42,428.17a138.8,138.8,0,0,0,14.52,0,138.8,138.8,0,0,0-14.52,0Z" style="fill:#e0e0e0"></path><rect x="631.59" y="409.79" width="14.4" height="27.76" transform="translate(1277.58 847.34) rotate(180)" style="fill:#fff"></rect><path d="M638.38,437.55c.11,0,.2-6.22.2-13.88s-.09-13.88-.2-13.88-.19,6.21-.19,13.88S638.28,437.55,638.38,437.55Z" style="fill:#e0e0e0"></path><path d="M631.59,419.43a129.7,129.7,0,0,0,14.4,0,136.52,136.52,0,0,0-14.4,0Z" style="fill:#e0e0e0"></path><path d="M631.51,429.36a138.8,138.8,0,0,0,14.52,0,138.8,138.8,0,0,0-14.52,0Z" style="fill:#e0e0e0"></path><rect x="25.36" y="243.64" width="49.35" height="208.71" style="fill:#ebebeb"></rect><rect x="34.56" y="258.27" width="15" height="28.91" style="fill:#fff"></rect><path d="M42.48,287.18c-.11,0-.2-6.48-.2-14.46s.09-14.45.2-14.45.2,6.47.2,14.45S42.59,287.18,42.48,287.18Z" style="fill:#e0e0e0"></path><path d="M49.56,268.31a70.67,70.67,0,0,1-7.5.2,70.67,70.67,0,0,1-7.5-.2,70.67,70.67,0,0,1,7.5-.2A70.67,70.67,0,0,1,49.56,268.31Z" style="fill:#e0e0e0"></path><path d="M49.64,278.65a71.85,71.85,0,0,1-7.56.2,71.69,71.69,0,0,1-7.56-.2,71.69,71.69,0,0,1,7.56-.2A71.85,71.85,0,0,1,49.64,278.65Z" style="fill:#e0e0e0"></path><rect x="34.56" y="296.03" width="15" height="28.91" style="fill:#fff"></rect><path d="M42.48,324.93c-.11,0-.2-6.47-.2-14.45s.09-14.45.2-14.45.2,6.47.2,14.45S42.59,324.93,42.48,324.93Z" style="fill:#e0e0e0"></path><path d="M49.56,306.07a70.67,70.67,0,0,1-7.5.2,70.67,70.67,0,0,1-7.5-.2,70.67,70.67,0,0,1,7.5-.2A70.67,70.67,0,0,1,49.56,306.07Z" style="fill:#e0e0e0"></path><path d="M49.64,316.41a71.85,71.85,0,0,1-7.56.2,71.69,71.69,0,0,1-7.56-.2,71.69,71.69,0,0,1,7.56-.2A71.85,71.85,0,0,1,49.64,316.41Z" style="fill:#e0e0e0"></path><rect x="34.56" y="333.78" width="15" height="28.91" style="fill:#fff"></rect><path d="M42.48,362.69c-.11,0-.2-6.47-.2-14.45s.09-14.46.2-14.46.2,6.47.2,14.46S42.59,362.69,42.48,362.69Z" style="fill:#e0e0e0"></path><path d="M49.56,343.83a70.67,70.67,0,0,1-7.5.2,70.67,70.67,0,0,1-7.5-.2,70.67,70.67,0,0,1,7.5-.2A70.67,70.67,0,0,1,49.56,343.83Z" style="fill:#e0e0e0"></path><path d="M49.64,354.16a71.85,71.85,0,0,1-7.56.2,71.69,71.69,0,0,1-7.56-.2,71.69,71.69,0,0,1,7.56-.2A71.85,71.85,0,0,1,49.64,354.16Z" style="fill:#e0e0e0"></path><rect x="34.56" y="371.54" width="15" height="28.91" style="fill:#fff"></rect><path d="M42.48,400.45c-.11,0-.2-6.47-.2-14.46s.09-14.45.2-14.45.2,6.47.2,14.45S42.59,400.45,42.48,400.45Z" style="fill:#e0e0e0"></path><path d="M49.56,381.58a70.67,70.67,0,0,1-7.5.2,70.67,70.67,0,0,1-7.5-.2,70.67,70.67,0,0,1,7.5-.2A70.67,70.67,0,0,1,49.56,381.58Z" style="fill:#e0e0e0"></path><path d="M49.64,391.92a71.85,71.85,0,0,1-7.56.2,71.69,71.69,0,0,1-7.56-.2,71.69,71.69,0,0,1,7.56-.2A71.85,71.85,0,0,1,49.64,391.92Z" style="fill:#e0e0e0"></path><rect x="59.74" y="243.64" width="35.96" height="208.71" style="fill:#e0e0e0"></rect><rect x="70.91" y="258.27" width="15" height="28.91" style="fill:#fff"></rect><path d="M78.83,287.18c-.11,0-.2-6.48-.2-14.46s.09-14.45.2-14.45.2,6.47.2,14.45S78.94,287.18,78.83,287.18Z" style="fill:#e0e0e0"></path><path d="M85.91,268.31a70.67,70.67,0,0,1-7.5.2,70.67,70.67,0,0,1-7.5-.2,70.67,70.67,0,0,1,7.5-.2A70.67,70.67,0,0,1,85.91,268.31Z" style="fill:#e0e0e0"></path><path d="M86,278.65a71.85,71.85,0,0,1-7.56.2,71.69,71.69,0,0,1-7.56-.2,71.69,71.69,0,0,1,7.56-.2A71.85,71.85,0,0,1,86,278.65Z" style="fill:#e0e0e0"></path><rect x="70.91" y="296.34" width="15" height="28.91" style="fill:#fff"></rect><path d="M78.83,325.24c-.11,0-.2-6.47-.2-14.45s.09-14.45.2-14.45.2,6.47.2,14.45S78.94,325.24,78.83,325.24Z" style="fill:#e0e0e0"></path><path d="M85.91,306.38a70.67,70.67,0,0,1-7.5.2,70.67,70.67,0,0,1-7.5-.2,70.67,70.67,0,0,1,7.5-.2A70.67,70.67,0,0,1,85.91,306.38Z" style="fill:#e0e0e0"></path><path d="M86,316.72a71.85,71.85,0,0,1-7.56.2,71.69,71.69,0,0,1-7.56-.2,71.69,71.69,0,0,1,7.56-.2A71.85,71.85,0,0,1,86,316.72Z" style="fill:#e0e0e0"></path><rect x="70.91" y="334.4" width="15" height="28.91" style="fill:#fff"></rect><path d="M78.83,363.31c-.11,0-.2-6.47-.2-14.45s.09-14.46.2-14.46.2,6.47.2,14.46S78.94,363.31,78.83,363.31Z" style="fill:#e0e0e0"></path><path d="M85.91,344.45a70.67,70.67,0,0,1-7.5.2,70.67,70.67,0,0,1-7.5-.2,70.67,70.67,0,0,1,7.5-.2A70.67,70.67,0,0,1,85.91,344.45Z" style="fill:#e0e0e0"></path><path d="M86,354.78a71.85,71.85,0,0,1-7.56.2,71.69,71.69,0,0,1-7.56-.2,71.69,71.69,0,0,1,7.56-.2A71.85,71.85,0,0,1,86,354.78Z" style="fill:#e0e0e0"></path><rect x="70.91" y="372.47" width="15" height="28.91" style="fill:#fff"></rect><path d="M78.83,401.38c-.11,0-.2-6.47-.2-14.46s.09-14.45.2-14.45.2,6.47.2,14.45S78.94,401.38,78.83,401.38Z" style="fill:#e0e0e0"></path><path d="M85.91,382.51a70.67,70.67,0,0,1-7.5.2,70.67,70.67,0,0,1-7.5-.2,70.67,70.67,0,0,1,7.5-.2A70.67,70.67,0,0,1,85.91,382.51Z" style="fill:#e0e0e0"></path><path d="M86,392.85a71.85,71.85,0,0,1-7.56.2,71.69,71.69,0,0,1-7.56-.2,71.69,71.69,0,0,1,7.56-.2A71.85,71.85,0,0,1,86,392.85Z" style="fill:#e0e0e0"></path><rect x="34.56" y="409.3" width="15" height="28.91" style="fill:#fff"></rect><path d="M42.48,438.2c-.11,0-.2-6.47-.2-14.45s.09-14.45.2-14.45.2,6.47.2,14.45S42.59,438.2,42.48,438.2Z" style="fill:#e0e0e0"></path><path d="M49.56,419.34a70.67,70.67,0,0,1-7.5.2,70.67,70.67,0,0,1-7.5-.2,70.67,70.67,0,0,1,7.5-.2A70.67,70.67,0,0,1,49.56,419.34Z" style="fill:#e0e0e0"></path><path d="M49.64,429.68a71.85,71.85,0,0,1-7.56.2,71.69,71.69,0,0,1-7.56-.2,71.69,71.69,0,0,1,7.56-.2A71.85,71.85,0,0,1,49.64,429.68Z" style="fill:#e0e0e0"></path><rect x="70.91" y="410.54" width="15" height="28.91" style="fill:#fff"></rect><path d="M78.83,439.44c-.11,0-.2-6.47-.2-14.45s.09-14.45.2-14.45S79,417,79,425,78.94,439.44,78.83,439.44Z" style="fill:#e0e0e0"></path><path d="M85.91,420.58a70.67,70.67,0,0,1-7.5.2,70.67,70.67,0,0,1-7.5-.2,70.67,70.67,0,0,1,7.5-.2A70.67,70.67,0,0,1,85.91,420.58Z" style="fill:#e0e0e0"></path><path d="M86,430.92a71.85,71.85,0,0,1-7.56.2,71.69,71.69,0,0,1-7.56-.2,71.69,71.69,0,0,1,7.56-.2A71.85,71.85,0,0,1,86,430.92Z" style="fill:#e0e0e0"></path></g><g id="freepik--Floor--inject-4"><path d="M703.15,449.47c0,.15-151,.26-337.13.26s-337.17-.11-337.17-.26,150.93-.26,337.17-.26S703.15,449.33,703.15,449.47Z" style="fill:#263238"></path></g><g id="freepik--Ambulance--inject-4"><rect x="102.31" y="323.83" width="581.82" height="70.1" style="fill:#455a64"></rect><path d="M98.23,129.13A28.79,28.79,0,0,0,70.37,149c-.15.48-.3,1-.44,1.47-5.51,20-16.54,76.5-13.78,140.59s10.34,97.86,10.34,97.86l63.4,8.27s4.16-53,53.09-53c61.36,0,60.45,60.11,60.45,60.11l326.65,5.51s.85-34.08,22.91-54.09c13.16-11.93,29.16-11,38.6-10.71,17,.56,38.78,11.21,44.39,33.62,4.7,18.82,6.62,32.33,6.62,32.33l27-5.51L701.9,324.1l-3.45-9S568.89,189,548.9,173.86s-43.41-42.73-79.94-42C435.52,132.45,146.83,129.62,98.23,129.13Z" style="fill:#e0e0e0"></path><path d="M53.32,329.47s.4,49,5.58,62.58c0,0,63.46,6.22,71,5.1,0,0,3.09-28.39,21.4-42.68l-17.06-17.83Z" style="fill:#263238"></path><polygon points="252.41 368.76 258.71 391.49 556.74 397.28 560.75 371.79 252.41 368.76" style="fill:#263238"></polygon><path d="M663,357.15l10.22-33.32h30.07s14.45,5,17.69,13.85,4.72,39.8,1.48,53.07L716,404.9l-33.35,7s-2-12.65-4.32-23.64C675.61,375.75,673,366.59,663,357.15Z" style="fill:#263238"></path><path d="M495.39,188.51c-.29,1.49,2.69,65.53,3.88,71.79s6.25,23.24,42.6,25,87.28,1.79,87.28,1.79L626,267.7s-43.88-47.66-54.46-57C563.75,203.76,560.34,196,541,193S495.39,188.51,495.39,188.51Z" style="fill:#455a64"></path><path d="M495.39,188.51s.28,0,.8,0l2.35.13c2.07.12,5.12.31,9.07.6,7.88.63,19.37,1.49,33.61,3.59a56.7,56.7,0,0,1,11,2.76,33.27,33.27,0,0,1,10.59,6.28c3.25,2.81,6.09,6.21,9.53,9.21S579,217.56,582.4,221c13.53,13.89,28.22,29.64,43.8,46.5l0,.05,0,.08c1,6.17,2.06,12.74,3.14,19.41l.05.3h-.31l-16-.08c-13.58-.11-26.84-.3-39.64-.61q-9.6-.24-18.84-.57l-9.13-.38c-1.5-.08-3-.11-4.49-.23l-4.43-.35a76.12,76.12,0,0,1-16.85-3.48,36.27,36.27,0,0,1-13.85-8.34A24.35,24.35,0,0,1,499,260c-.6-4.85-.81-9.5-1.12-13.94-1.07-17.76-1.69-32.15-2.11-42.09-.19-5-.33-8.83-.39-11.45,0-1.3,0-2.3,0-3s0-1,0-1,0,.35,0,1,.06,1.68.1,3c.12,2.63.28,6.48.5,11.44.47,9.94,1.15,24.32,2.26,42.08.32,4.43.55,9.1,1.16,13.89A23.92,23.92,0,0,0,506.19,273a35.66,35.66,0,0,0,13.7,8.21,74.53,74.53,0,0,0,16.75,3.44l4.41.35c1.48.12,3,.15,4.48.23l9.13.36q9.23.33,18.84.56c12.79.3,26,.49,39.62.6l16,.08-.25.3c-1.08-6.67-2.14-13.24-3.14-19.41l.07.13c-15.58-16.85-30.25-32.62-43.75-46.53-3.39-3.46-6.68-6.84-10-9.93s-6.31-6.44-9.51-9.22A33.13,33.13,0,0,0,552.08,196a56.38,56.38,0,0,0-10.91-2.77c-14.21-2.14-25.7-3.05-33.58-3.73l-9.06-.7-2.34-.17Z" style="fill:#263238"></path><path d="M551.81,195.64c.18,1.69,5.56,90.32,5.56,90.32h8.86l-4-84.28A35.59,35.59,0,0,0,551.81,195.64Z" style="fill:#263238"></path><path d="M617.33,256.68c.3.44,7.24,8.31,12.22,15.4a27.2,27.2,0,0,1,4.89,16.09h-21Z" style="fill:#263238"></path><path d="M618,315.07l-544.79-6.9.26-32.55,426.9,4.7,16.42,9.29c7.4,3.52,17.25,5.07,25.43,5.54s17.61.06,24.89.22l50.35,1Z" style="fill:#FF725E"></path><rect x="488.04" y="283.82" width="17.34" height="27.6" rx="7.43" style="fill:#263238"></rect><rect x="443.91" y="282.76" width="17.34" height="27.6" rx="7.43" style="fill:#263238"></rect><rect x="83.73" y="263.9" width="191.49" height="7.44" style="fill:#ebebeb"></rect><path d="M275.22,271.33s0-.59,0-1.82,0-3.08,0-5.61l.07.06c-21.9.11-99.39.2-191.48.2h0l.26-.26v7.43l-.26-.26,135.59.11,40.89.08,11.11,0,2.9,0h1s-.32,0-1,0l-2.87,0-11.05,0-40.82.08-135.79.1h-.26v-8h.27c92.09,0,169.58.09,191.48.2h.07v.07c0,2.55,0,4.41,0,5.65S275.22,271.33,275.22,271.33Z" style="fill:#263238"></path><rect x="78.23" y="263.57" width="8.09" height="8.09" style="fill:#263238"></rect><rect x="263.76" y="263.57" width="12.74" height="8.09" style="fill:#263238"></rect><path d="M478.87,179.72c0,.15-90.37,0-201.83-.25s-201.85-.62-201.85-.77,90.36,0,201.85.25S478.87,179.58,478.87,179.72Z" style="fill:#263238"></path><polygon points="56.46 243.02 73.18 261.06 73.18 238.08 57.91 222.95 56.46 243.02" style="fill:#FF725E"></polygon><path d="M61,196.29l12.18,10.17V186.69l-8.36-9.14S60.21,191.31,61,196.29Z" style="fill:#FF725E"></path><path d="M56,257.3l17.15,24.24v49.69l-14.55-1.29s-2.08-22.57-2.48-37.48S56,257.3,56,257.3Z" style="fill:#FF725E"></path><polygon points="56.46 279.1 62.67 285.75 64.6 320.37 57.86 320.37 56.46 279.1" style="fill:#e0e0e0"></polygon><polygon points="618.46 330.26 73.18 328.02 73.18 317.4 618.16 321.26 618.46 330.26" style="fill:#FF725E"></polygon><rect x="114.24" y="111.39" width="18.08" height="18.08" style="fill:#455a64"></rect><rect x="432.49" y="112.4" width="39.28" height="19.43" rx="8.33" style="fill:#455a64"></rect><path d="M285.79,184.88l-.75,0-2.21,0-8.48,0-31.18.08-102.89.08-60.37,0,.23-.24c.17,25.16.32,46.44.42,61.46,0,7.48.06,13.41.08,17.47v5.83a3,3,0,0,1,0,.4s0-.13,0-.4l0-1.19-.07-4.64c0-4.06-.12-10-.21-17.47-.15-15-.36-36.3-.61-61.45v-.24h.24l60.37,0,102.89.08,31.18.08,8.48,0,2.21,0Z" style="fill:#263238"></path><rect x="171.61" y="188.99" width="19.59" height="72.07" style="fill:#FF725E"></rect><rect x="172.85" y="191.65" width="19.59" height="72.07" transform="translate(76.79 499.71) rotate(-120)" style="fill:#FF725E"></rect><rect x="171.61" y="189.51" width="19.59" height="72.07" transform="translate(469.59 198.49) rotate(123.45)" style="fill:#FF725E"></rect><polygon points="468.89 267.61 282.86 267.14 281.11 184.88 468.89 184.88 468.89 267.61" style="fill:#263238"></polygon><rect x="591.96" y="240.11" width="26.73" height="58.48" rx="11.46" style="fill:#263238"></rect><path d="M607.23,298.59s.53,0,1.52-.16a11.09,11.09,0,0,0,4.09-1.43,11.39,11.39,0,0,0,5.65-9.09c.07-1.52,0-3.16,0-4.86,0-6.82,0-14.94-.06-23.95q0-3.37,0-6.92a11.44,11.44,0,0,0-1.83-6.72A11.19,11.19,0,0,0,611,241a11,11,0,0,0-3.66-.64h-3.88a11.35,11.35,0,0,0-7,2.44,11.2,11.2,0,0,0-3.89,6,13.29,13.29,0,0,0-.35,3.56V256q0,3.54,0,6.92c0,9,0,17.13-.06,24a11.35,11.35,0,0,0,9.2,11.42,28.25,28.25,0,0,0,4.36.25l1.14,0a1.65,1.65,0,0,1,.39,0,1.93,1.93,0,0,1-.39,0l-1.14,0a25.38,25.38,0,0,1-4.4-.15,11.58,11.58,0,0,1-9.53-11.62c0-6.83,0-14.95,0-24,0-2.25,0-4.56,0-6.92v-3.58a13.59,13.59,0,0,1,.35-3.68,11.72,11.72,0,0,1,11.36-8.88h3.88a11.83,11.83,0,0,1,3.84.67,11.71,11.71,0,0,1,5.9,4.65,12,12,0,0,1,1.9,7c0,2.36,0,4.67,0,6.92,0,9,0,17.13,0,23.95,0,1.71,0,3.32-.06,4.88a11.6,11.6,0,0,1-5.88,9.25,10.58,10.58,0,0,1-4.18,1.35A8.4,8.4,0,0,1,607.23,298.59Z" style="fill:#455a64"></path><circle cx="185.08" cy="399.41" r="50.45" transform="translate(-18.9 9.31) rotate(-2.74)" style="fill:#263238"></circle><path d="M134.64,398.56s0,.08,0,.13a50.45,50.45,0,0,0,100.89,1.45s0-.08,0-.13Z" style="fill:#263238"></path><path d="M149.66,398.9A35.42,35.42,0,1,0,185.59,364,35.42,35.42,0,0,0,149.66,398.9Z" style="fill:#fafafa"></path><path d="M185.59,364a35.42,35.42,0,0,0-35.93,34.9l70.83,1A35.42,35.42,0,0,0,185.59,364Z" style="fill:#e0e0e0"></path><path d="M163.5,399.1a21.58,21.58,0,1,0,21.89-21.26A21.58,21.58,0,0,0,163.5,399.1Z" style="fill:#263238"></path><circle cx="626.18" cy="399.41" r="50.45" transform="translate(203.74 1010.3) rotate(-87.87)" style="fill:#263238"></circle><path d="M575.74,398.56a.62.62,0,0,1,0,.13,50.45,50.45,0,0,0,100.89,1.45s0-.08,0-.13Z" style="fill:#263238"></path><path d="M590.76,398.9A35.42,35.42,0,1,0,626.69,364,35.42,35.42,0,0,0,590.76,398.9Z" style="fill:#fafafa"></path><path d="M626.69,364a35.43,35.43,0,0,0-35.93,34.9l70.83,1A35.42,35.42,0,0,0,626.69,364Z" style="fill:#e0e0e0"></path><path d="M604.6,399.1a21.58,21.58,0,1,0,21.89-21.26A21.58,21.58,0,0,0,604.6,399.1Z" style="fill:#263238"></path><path d="M252.41,368.76a1.47,1.47,0,0,1-.15-.33c-.09-.24-.22-.57-.39-1l-.62-1.61-.93-2.16c-.72-1.61-1.67-3.55-2.86-5.76a81.25,81.25,0,0,0-4.57-7.2,61.9,61.9,0,0,0-15.69-15.47A69.68,69.68,0,0,0,202,325.63a93.14,93.14,0,0,0-27.05-.84,125.2,125.2,0,0,0-21.71,4.48c-6.06,1.81-10.85,3.62-14.14,4.92l-3.78,1.52-1,.4a1.55,1.55,0,0,1-.34.12,1.79,1.79,0,0,1,.32-.17l1-.44c.84-.39,2.11-.93,3.74-1.62,3.27-1.36,8.05-3.22,14.11-5.08a121.69,121.69,0,0,1,21.77-4.61,92.74,92.74,0,0,1,27.2.81,69.64,69.64,0,0,1,25.35,9.73,61.86,61.86,0,0,1,15.72,15.66,74.78,74.78,0,0,1,4.52,7.27c1.18,2.23,2.1,4.19,2.8,5.82.33.82.63,1.55.88,2.19s.43,1.18.58,1.62.26.75.34,1A1.3,1.3,0,0,1,252.41,368.76Z" style="fill:#263238"></path><path d="M699.3,349s-.14-.09-.4-.29l-1.14-.9c-.5-.39-1.1-.91-1.86-1.45l-2.62-1.86a106,106,0,0,0-18-9.69,122.17,122.17,0,0,0-29.09-8.5c-11.28-1.91-24.06-1.19-36.89,1.84A77,77,0,0,0,600,331a66,66,0,0,0-8.62,3.9,58.07,58.07,0,0,0-14.23,10.75,63.76,63.76,0,0,0-9.63,13,81.79,81.79,0,0,0-5.82,12.86,101.78,101.78,0,0,0-4.8,19.89c-.15,1.19-.29,2.26-.41,3.19s-.18,1.7-.24,2.34-.12,1.1-.15,1.45-.07.49-.07.49a4.7,4.7,0,0,1,0-.5c0-.35.06-.83.1-1.45s.12-1.43.19-2.35.23-2,.37-3.2a99.49,99.49,0,0,1,4.65-20,81.34,81.34,0,0,1,5.8-12.95,63.68,63.68,0,0,1,9.66-13.1,57.93,57.93,0,0,1,14.33-10.86,66.43,66.43,0,0,1,8.68-3.95,78,78,0,0,1,9.39-2.87c12.89-3,25.74-3.75,37.08-1.8a120.8,120.8,0,0,1,29.16,8.63,103.29,103.29,0,0,1,18,9.86l2.61,1.91c.75.55,1.33,1.09,1.83,1.49l1.11.94A4.22,4.22,0,0,1,699.3,349Z" style="fill:#263238"></path><path d="M73.18,331.68c-.14,0-.26-42.9-.26-95.81s.12-95.82.26-95.82.26,42.89.26,95.82S73.33,331.68,73.18,331.68Z" style="fill:#263238"></path><path d="M618.22,249.94s-.18-.18-.53-.56l-1.51-1.69-5.91-6.59c-5.21-5.73-12.77-14.22-22.8-24.58a171.05,171.05,0,0,0-17.71-16,95.66,95.66,0,0,0-24.35-13.74c-1.16-.47-2.36-.85-3.56-1.27s-2.45-.71-3.68-1.07c-2.5-.61-5.07-1.13-7.7-1.53-5.25-.82-10.7-1.39-16.3-1.81-11.19-.82-23-1.2-35.3-1.17l.23-.24c1,22.06,2,46,2.94,71.23q.3,9.48.62,19.19c.18,6.48.37,13,.32,19.66,0,1.66.06,3.3.11,5s.27,3.31.41,5c.36,3.32.74,6.65,1.2,10,.9,6.68,1.94,13.41,3,20.18,2.13,13.14,4.4,26.07,6.59,38.76,1.09,6.35,2.18,12.63,3.09,18.88.24,1.55.41,3.13.57,4.7a18.69,18.69,0,0,0,.85,4.53,8,8,0,0,0,2.41,3.74,5.33,5.33,0,0,0,4.13,1.11h.06l56,.45-.23.18q3.57-13.08,6.95-25.43a58.82,58.82,0,0,1,4.66-11.72,42.67,42.67,0,0,1,3.23-5.23l1.81-2.45c.31-.4.59-.81.91-1.2l1-1.11a52.52,52.52,0,0,1,18.43-13.59c1.66-.8,3.4-1.38,5.09-2l2.58-.79c.85-.27,1.72-.45,2.57-.67a50.64,50.64,0,0,1,10.24-1.41l-.18.19c-.92-27-1.5-48.78-1.6-63.77,0-7.49,0-13.29.32-17.21a24.52,24.52,0,0,1,.61-4.42c.12-.48.21-.85.28-1.1s.1-.38.1-.38-.09.51-.33,1.49a26.5,26.5,0,0,0-.56,4.41c-.26,3.92-.29,9.72-.22,17.21.16,15,.79,36.72,1.76,63.75V337h-.19a49.31,49.31,0,0,0-10.15,1.42c-.85.22-1.71.4-2.56.66l-2.56.79c-1.67.63-3.4,1.21-5,2a52.2,52.2,0,0,0-18.27,13.5l-1,1.11c-.32.38-.6.8-.9,1.2l-1.8,2.42a42.11,42.11,0,0,0-3.2,5.2,58.45,58.45,0,0,0-4.6,11.63q-3.37,12.35-6.94,25.43l0,.18h-.19l-56-.42h.06a5.83,5.83,0,0,1-4.56-1.2,8.54,8.54,0,0,1-2.57-4,19.47,19.47,0,0,1-.88-4.66c-.16-1.55-.32-3.1-.57-4.66-.91-6.23-2-12.52-3.09-18.86-2.19-12.69-4.47-25.62-6.6-38.77-1.09-6.77-2.14-13.5-3-20.19-.47-3.34-.84-6.69-1.21-10-.13-1.67-.27-3.34-.4-5s-.12-3.34-.11-5c0-6.6-.15-13.16-.32-19.63s-.42-12.87-.62-19.19c-.9-25.26-1.91-49.17-2.89-71.23v-.23h.24c12.31,0,24.12.38,35.34,1.21,5.6.43,11,1,16.32,1.84,2.64.4,5.22.92,7.74,1.54,1.24.37,2.5.66,3.7,1.09s2.41.8,3.58,1.28A95.84,95.84,0,0,1,570,200.29a168.16,168.16,0,0,1,17.71,16c10,10.4,17.54,18.91,22.71,24.68l5.86,6.63c.66.75,1.15,1.33,1.49,1.72Z" style="fill:#263238"></path><path d="M98.23,129.13l189.26,1.59,97.87.71,55.1.26c9.51,0,19.17,0,29-.08a71.51,71.51,0,0,1,29.16,5.92c9.35,4,18,9.73,26.16,16.14s15.93,13.61,24.39,20.1c8.34,6.71,16.21,14.12,24.28,21.51s16.11,15,24.25,22.69c32.53,30.78,66.2,63.25,101,97l0,0,0,.05,3.44,9v.06c2.43,25.71,5,53.3,7.69,81.33l0,.23-.22.05-27,5.5-.27.06,0-.28c-.69-5-1.64-10-2.66-15.07s-2.16-10.08-3.43-15.11a48.19,48.19,0,0,0-6.09-14.28A43.9,43.9,0,0,0,659.55,355c-8.43-6.37-19.08-9.56-29.75-9.88a79.94,79.94,0,0,0-16,1,38.86,38.86,0,0,0-14.94,5.78,59,59,0,0,0-12.37,11.29,55.91,55.91,0,0,0-8.36,14.4,103.74,103.74,0,0,0-5,15.88,128.38,128.38,0,0,0-2.74,16.32l0,.25h-.24l-326.64-5.53h-.23v-.24A73.55,73.55,0,0,0,238.83,381a57.65,57.65,0,0,0-12-19.9,53.51,53.51,0,0,0-8.81-7.4,56.46,56.46,0,0,0-10.18-5.13,68.91,68.91,0,0,0-22-4.06l-2.78-.09-2.78.09c-1.85,0-3.68.29-5.51.46-.91.1-1.81.31-2.71.45a27.36,27.36,0,0,0-2.69.57l-2.65.69-2.58.89a45.35,45.35,0,0,0-9.65,4.89,48,48,0,0,0-8.13,7,58.35,58.35,0,0,0-11.12,17.83,74.92,74.92,0,0,0-5.14,19.94l0,.22-.21,0-63.4-8.29h-.13l0-.13c-2.17-10.55-3.64-20.94-4.94-31.09s-2.25-20.07-3-29.72c-.43-4.83-.73-9.59-1.08-14.28s-.6-9.32-.81-13.88-.47-9-.57-13.46c-.07-2.2-.13-4.39-.2-6.57s0-4.32,0-6.46c-.09-17.08.69-33,1.93-47.56s3-27.85,4.88-39.72,4.06-22.34,6.28-31.33c.6-2.24,1.09-4.41,1.79-6.44l.54-1.49c.19-.49.43-.95.64-1.42a27.78,27.78,0,0,1,1.41-2.65A28.55,28.55,0,0,1,80.19,135a29.35,29.35,0,0,1,13.15-5.57,28.59,28.59,0,0,1,3.65-.31l1.24,0-1.24.05a28.15,28.15,0,0,0-3.64.35,29.41,29.41,0,0,0-13.09,5.59,28.54,28.54,0,0,0-7.07,7.8c-.46.86-1,1.7-1.4,2.64-.2.47-.44.93-.63,1.41s-.35,1-.53,1.49c-.7,2-1.18,4.19-1.78,6.43-2.2,9-4.31,19.46-6.22,31.32s-3.6,25.14-4.84,39.71-2,30.47-1.88,47.54c0,2.13,0,4.29.06,6.46s.13,4.36.2,6.56c.09,4.42.36,8.9.57,13.45s.55,9.18.82,13.87.66,9.46,1.09,14.28c.81,9.65,1.79,19.56,3.07,29.7s2.78,20.54,5,31.06l-.16-.15L129.92,397l-.23.18a75.27,75.27,0,0,1,5.15-20.07,59.05,59.05,0,0,1,11.2-18,48.07,48.07,0,0,1,8.2-7,45.74,45.74,0,0,1,9.74-4.94l2.61-.89,2.67-.7A25.09,25.09,0,0,1,172,345c.91-.15,1.81-.36,2.73-.47,1.85-.17,3.69-.45,5.55-.46l2.8-.09,2.8.09A69.38,69.38,0,0,1,208,348.11a57.11,57.11,0,0,1,10.27,5.17,53.54,53.54,0,0,1,8.89,7.46,58.15,58.15,0,0,1,12.06,20.06,74.13,74.13,0,0,1,4.41,23.48l-.23-.24,326.64,5.48-.26.24a125.57,125.57,0,0,1,2.75-16.4,102.58,102.58,0,0,1,5-16A56.69,56.69,0,0,1,586,362.87a59.64,59.64,0,0,1,12.48-11.4,39.8,39.8,0,0,1,15.14-5.86,64.45,64.45,0,0,1,8.07-.89c1.35-.06,2.7-.14,4-.14l2,0,2,.06c10.75.33,21.52,3.54,30,10a44.27,44.27,0,0,1,10.74,11.61,48.77,48.77,0,0,1,6.15,14.43c1.27,5.05,2.39,10.1,3.43,15.14s2,10.06,2.68,15.11l-.31-.22,27-5.51-.2.28c-2.65-28-5.26-55.63-7.68-81.33v.07l-3.44-9,.06.09c-34.74-33.75-68.4-66.23-100.93-97q-12.2-11.53-24.23-22.69c-8.06-7.39-16-14.81-24.25-21.49-8.48-6.52-16.2-13.72-24.39-20.11s-16.74-12.15-26.05-16.09a71,71,0,0,0-29-5.9c-9.81.1-19.47.09-29,.06l-55.1-.28L287.49,131l-139.2-1.33Z" style="fill:#263238"></path><path d="M130.52,338.4a3.57,3.57,0,0,1-.61.47l-1.82,1.26c-.79.55-1.71,1.3-2.8,2.13-.54.42-1.08.91-1.68,1.41s-1.22,1-1.85,1.63a101.76,101.76,0,0,0-17.2,21l-.09.14h-.16l-2.76-.3-29-3.24-8.78-1-2.39-.31a4.49,4.49,0,0,1-.83-.14,5.3,5.3,0,0,1,.84,0l2.4.21,8.8.88,29,3.08,2.75.3-.25.13a97.23,97.23,0,0,1,17.42-21c.63-.6,1.27-1.12,1.87-1.61s1.17-1,1.72-1.39c1.11-.81,2-1.54,2.85-2.07l1.88-1.18A5,5,0,0,1,130.52,338.4Z" style="fill:#455a64"></path><path d="M661.91,279.75c-1.61,0-3,32.64,36.54,35.39C698.45,315.14,698,280.67,661.91,279.75Z" style="fill:#FF725E"></path><path d="M468.89,405.31s0-.43,0-1.27,0-2.11,0-3.76c0-3.32,0-8.22,0-14.56,0-12.7,0-31.2-.08-54.4,0-46.43-.05-111.69-.09-187.07l.25.25L375,144.17l-93.58-.34.26-.26c0,37.75.58,73,1.08,104.54s1.1,59.53,1.53,82.77.87,41.75,1.14,54.47c.13,6.35.23,11.25.3,14.58,0,1.65.05,2.91.07,3.76s0,1.28,0,1.28,0-.44-.05-1.28-.07-2.11-.12-3.76c-.09-3.32-.22-8.22-.39-14.57-.3-12.72-.73-31.24-1.28-54.47s-1.09-51.19-1.64-82.78-1.08-66.79-1.16-104.54v-.25h.26l93.57.33,93.91.35h.25v.25c0,75.38-.06,140.64-.09,187.07,0,23.2-.05,41.7-.07,54.4,0,6.34,0,11.24,0,14.56,0,1.65,0,2.9,0,3.76S468.89,405.31,468.89,405.31Z" style="fill:#263238"></path><path d="M372.74,251.58c-.08-.12,11.27-7.55,25.34-16.6s25.54-16.3,25.62-16.18-11.27,7.56-25.34,16.61S372.82,251.7,372.74,251.58Z" style="fill:#455a64"></path><path d="M373.58,242c-.08-.12,7-5.15,15.83-11.22s16-10.91,16.12-10.79-7,5.14-15.83,11.22S373.66,242.12,373.58,242Z" style="fill:#455a64"></path><path d="M373.14,229.1a89.93,89.93,0,0,1,12-6.36,45.31,45.31,0,0,1-5.88,3.41A46.52,46.52,0,0,1,373.14,229.1Z" style="fill:#455a64"></path></g><g id="freepik--Plant--inject-4"><path d="M443.9,393.24a10.56,10.56,0,0,1,5.46,6.18,18.64,18.64,0,0,1,.72,8.37c-.61,5.43-3.7,10.91-7,15.25-4.57-4-5.63-11-5.94-14.52-.49-5.63,2-16.12,6.78-15.28" style="fill:#FF725E"></path><path d="M448.37,432a9,9,0,0,1,2.9-8.54,12,12,0,0,1,8.8-2.74,5,5,0,0,1,3.86,1.73,3.84,3.84,0,0,1,.05,3.89,7.77,7.77,0,0,1-2.88,2.84c-4,2.48-8.25,4.16-12.73,2.82" style="fill:#FF725E"></path><path d="M442.51,448.65a6.7,6.7,0,0,1,.16-1.12c.15-.78.33-1.8.56-3a31.38,31.38,0,0,1,3.11-9.64,19.28,19.28,0,0,1,6.91-7.34,12.67,12.67,0,0,1,2.82-1.25,7.66,7.66,0,0,1,.81-.2c.19,0,.29-.06.29,0a19.28,19.28,0,0,0-3.78,1.73,19.91,19.91,0,0,0-6.71,7.3,33.78,33.78,0,0,0-3.18,9.49c-.28,1.27-.5,2.29-.68,3A5.57,5.57,0,0,1,442.51,448.65Z" style="fill:#263238"></path><path d="M442.68,401.4a2,2,0,0,1,.06.48c0,.37.05.83.08,1.4.07,1.22.14,3,.21,5.15.14,4.35.25,10.37.22,17s-.19,12.66-.37,17c-.09,2.17-.18,3.93-.25,5.15,0,.57-.07,1-.1,1.39a1.61,1.61,0,0,1-.06.49,2.66,2.66,0,0,1,0-.49c0-.36,0-.83,0-1.4,0-1.27.07-3,.12-5.15.11-4.35.23-10.36.26-17s0-12.65-.11-17c0-2.14-.06-3.89-.08-5.15,0-.58,0-1,0-1.4A2.66,2.66,0,0,1,442.68,401.4Z" style="fill:#263238"></path><path d="M440.46,435.3A21,21,0,0,0,429,419.92c-1.53-.73-3.53-1.21-4.78-.07s-1,3.18-.36,4.76a17.94,17.94,0,0,0,16.49,11.14" style="fill:#FF725E"></path><path d="M429.74,425.07a6.78,6.78,0,0,1,1,.42,10.36,10.36,0,0,1,1.09.59c.41.26.91.51,1.4.87s1.05.73,1.6,1.21a21.14,21.14,0,0,1,1.7,1.54,23.26,23.26,0,0,1,3.22,4.15,22.3,22.3,0,0,1,2.13,4.81,19.4,19.4,0,0,1,.54,2.23,17.58,17.58,0,0,1,.27,2,14.16,14.16,0,0,1,.08,1.65,9.36,9.36,0,0,1,0,1.24,7,7,0,0,1-.11,1.05c-.09,0,.06-1.51-.21-3.91a17.22,17.22,0,0,0-.31-1.94,20.9,20.9,0,0,0-.57-2.19,23.17,23.17,0,0,0-2.12-4.72,24.21,24.21,0,0,0-3.15-4.1,19.36,19.36,0,0,0-1.65-1.54c-.52-.48-1.06-.86-1.54-1.23C431.07,425.78,429.7,425.15,429.74,425.07Z" style="fill:#263238"></path></g></svg>